<?xml version="1.0" encoding="UTF-8"?>
<svg id="Layer_1" xmlns="http://www.w3.org/2000/svg" version="1.1" viewBox="0 0 7265.24 549.22">
  <!-- Generator: Adobe Illustrator 30.3.0, SVG Export Plug-In . SVG Version: 2.1.3 Build 182)  -->
  <path d="M7036.39,236.47c-20.85,0-38.78-7.49-53.77-22.5-15.01-14.99-22.5-32.92-22.5-53.77s7.49-38.78,22.5-53.78c14.99-14.99,32.92-22.5,53.77-22.5h76.28c20.84,0,38.77,7.51,53.78,22.5,14.99,15,22.5,32.94,22.5,53.78s-7.5,38.78-22.5,53.77c-15.01,15.01-32.94,22.5-53.78,22.5h-76.28ZM6960.12,541.59v-104.5c0-11.18,3.81-20.33,11.44-27.46,7.63-7.11,16.51-10.67,26.7-10.67s19.83,3.81,27.46,11.43l131.2,131.2h108.32l-164.76-164.76c-7.63-7.63-11.44-16.78-11.44-27.46,0-9.65,3.3-18.04,9.91-25.17,6.6-7.12,15.25-11.18,25.94-12.21,25.43-2.02,48.94-10.03,70.56-24.03,21.61-13.98,38.64-32.16,51.1-54.54,12.46-22.37,18.69-46.53,18.69-72.46,0-27.96-6.87-53.64-20.59-77.04-13.73-23.39-32.3-41.95-55.69-55.68s-48.82-20.59-76.28-20.59h-228.84v533.95h76.28,0ZM6818.92,541.59v-76.28h-190.7c-20.85,0-38.79-7.5-53.77-22.5-15.01-14.99-22.5-32.92-22.5-53.78s7.49-38.77,22.5-53.78c14.99-14.99,32.92-22.5,53.77-22.5h190.7v-76.28h-190.7c-20.85,0-38.79-7.49-53.77-22.5-15.01-14.99-22.5-32.92-22.5-53.77s7.49-38.78,22.5-53.78c14.99-14.99,32.92-22.5,53.77-22.5h190.7V7.63h-343.26v533.95h343.26ZM6400.15,7.63h-76.28v533.95h76.28V7.63ZM6286.27,541.59v-76.28h-190.7c-20.85,0-38.79-7.5-53.78-22.5-15-14.99-22.5-32.92-22.5-53.78V7.63h-76.28v533.95h343.26,0ZM5878.11,541.59v-76.28h-190.7c-20.86,0-38.79-7.5-53.78-22.5-15-14.99-22.5-32.92-22.5-53.78s7.5-38.77,22.5-53.78c14.99-14.99,32.92-22.5,53.78-22.5h190.7v-76.28h-190.7c-20.86,0-38.79-7.49-53.78-22.5-15-14.99-22.5-32.92-22.5-53.77s7.5-38.78,22.5-53.78c14.99-14.99,32.92-22.5,53.78-22.5h190.7V7.63h-343.26v533.95h343.26ZM5256.96,541.59h76.28V160.19c0-20.84,7.49-38.78,22.5-53.78,14.99-14.99,32.92-22.5,53.77-22.5h87.73V7.63h-404.28v76.28h87.72c20.84,0,38.77,7.51,53.78,22.5,14.99,15,22.5,32.94,22.5,53.78v381.39h0ZM4912.94,369.95c-20.85,0-38.78-7.49-53.77-22.5-15-14.99-22.5-32.92-22.5-53.78s7.5-38.77,22.5-53.78c14.99-14.99,32.92-22.5,53.77-22.5s38.78,7.5,53.78,22.5c14.99,15.01,22.5,32.94,22.5,53.78s-7.51,38.79-22.5,53.78c-15,15-32.93,22.5-53.78,22.5M4755.81,541.59l27.46-80.86c2.53-7.63,7.11-13.85,13.72-18.69,6.6-4.82,13.98-7.24,22.12-7.24h187.65c8.13,0,15.5,2.42,22.12,7.24,6.6,4.84,11.17,11.06,13.72,18.69l27.46,80.86h81.62L4970.15,7.63h-114.41l-181.55,533.95h81.62Z"/>
  <path d="M4063.74,541.59v-136.54c0-10.68,3.81-19.83,11.44-27.46,7.11-7.11,16.02-10.68,26.7-10.68s20.08,3.57,26.7,10.68l164,164h108.32l-212.82-212.82c-14.75-15.75-22.12-33.81-22.12-54.16,0-21.35,7.37-39.4,22.12-54.15l212.82-212.82h-108.32l-164,164c-7.12,7.12-16.01,10.67-26.7,10.67-9.66,0-18.57-3.55-26.7-10.67-7.63-7.63-11.44-16.78-11.44-27.46V7.63h-76.28v533.95h76.28ZM3713.02,236.47c-20.86,0-38.79-7.49-53.78-22.5-15-14.99-22.5-32.92-22.5-53.77s7.5-38.78,22.5-53.78c14.99-14.99,32.92-22.5,53.78-22.5h76.28c20.84,0,38.78,7.51,53.78,22.5,14.99,15,22.5,32.94,22.5,53.78s-7.51,38.78-22.5,53.77c-15,15.01-32.94,22.5-53.78,22.5h-76.28ZM3636.73,541.59v-104.5c0-11.18,3.82-20.33,11.44-27.46,7.63-7.11,16.52-10.67,26.7-10.67s19.83,3.81,27.46,11.43l131.2,131.2h108.31l-164.76-164.76c-7.63-7.63-11.44-16.78-11.44-27.46,0-9.65,3.3-18.04,9.91-25.17,6.6-7.12,15.26-11.18,25.94-12.21,25.43-2.02,48.94-10.03,70.56-24.03,21.61-13.98,38.64-32.16,51.11-54.54,12.45-22.37,18.68-46.53,18.68-72.46,0-27.96-6.86-53.64-20.59-77.04-13.73-23.39-32.3-41.95-55.68-55.68-23.4-13.73-48.82-20.59-76.28-20.59h-228.84v533.95h76.28ZM3285.7,369.95c-20.85,0-38.78-7.49-53.77-22.5-15.01-14.99-22.5-32.92-22.5-53.78s7.49-38.77,22.5-53.78c14.99-14.99,32.92-22.5,53.77-22.5s38.78,7.5,53.78,22.5c14.99,15.01,22.5,32.94,22.5,53.78s-7.51,38.79-22.5,53.78-32.94,22.5-53.78,22.5M3128.57,541.59l27.46-80.86c2.54-7.63,7.12-13.85,13.73-18.69,6.6-4.82,13.98-7.24,22.12-7.24h187.65c8.12,0,15.5,2.42,22.12,7.24,6.6,4.84,11.17,11.06,13.72,18.69l27.46,80.86h81.62L3342.91,7.63h-114.42l-181.54,533.95h81.62ZM2857.55,236.47c-20.86,0-38.79-7.49-53.78-22.5-15-14.99-22.5-32.92-22.5-53.77s7.49-38.78,22.5-53.78c14.99-14.99,32.92-22.5,53.78-22.5h76.28c20.85,0,38.78,7.51,53.78,22.5,14.99,15,22.5,32.94,22.5,53.78s-7.51,38.78-22.5,53.77c-15,15.01-32.93,22.5-53.78,22.5h-76.28ZM2781.27,541.59v-152.56c0-20.84,7.49-38.77,22.5-53.78s32.92-22.5,53.78-22.5h76.28c27.46,0,52.89-6.87,76.28-20.6,23.39-13.72,41.95-32.29,55.68-55.68,13.73-23.39,20.59-48.82,20.59-76.28s-6.86-52.88-20.59-76.28c-13.73-23.39-32.3-41.95-55.68-55.68-23.39-13.73-48.82-20.59-76.28-20.59h-228.84v533.95h76.28ZM2667.39,541.59v-76.28h-190.7c-20.85,0-38.78-7.5-53.77-22.5-15.01-14.99-22.5-32.92-22.5-53.78V7.63h-76.28v533.95h343.26-.01ZM2259.22,541.59v-76.28h-190.7c-20.86,0-38.79-7.5-53.78-22.5-15-14.99-22.5-32.92-22.5-53.78s7.5-38.77,22.5-53.78c14.99-14.99,32.92-22.5,53.78-22.5h190.7v-76.28h-190.7c-20.86,0-38.79-7.49-53.78-22.5-15-14.99-22.5-32.92-22.5-53.77s7.5-38.78,22.5-53.78c14.99-14.99,32.92-22.5,53.78-22.5h190.7V7.63h-343.26v533.95h343.26ZM1638.08,541.59h76.28V160.19c0-20.84,7.5-38.78,22.5-53.78,14.99-14.99,32.92-22.5,53.77-22.5h87.73V7.63h-404.28v76.28h87.72c20.84,0,38.77,7.51,53.78,22.5,14.99,15,22.5,32.94,22.5,53.78v381.39h0ZM1260.59,549.22c61.02,0,108.18-14.23,141.5-42.72,33.3-28.48,49.96-66.36,49.96-113.66,0-35.59-8.39-63.8-25.17-84.67-16.77-20.84-36.88-36.24-60.26-46.15-23.39-9.91-53.65-19.45-90.77-28.61-27.97-7.63-49.58-14.23-64.83-19.83-15.26-5.59-27.97-13.34-38.15-23.26-10.17-9.91-15.25-23.01-15.25-39.28,0-22.88,9.65-41.7,28.99-56.45,19.32-14.74,43.98-22.12,73.99-22.12s53.39,7,71.7,20.98c18.3,13.99,30.25,32.42,35.85,55.3h83.91c-4.57-27.97-15.25-53.27-32.04-75.9-16.78-22.62-38.79-40.43-65.98-53.39C1326.83,6.49,1295.69,0,1260.6,0s-67.26,6.48-94.97,19.45c-27.72,12.96-49.33,30.9-64.84,53.78s-23.26,48.81-23.26,77.81c0,33.56,7.88,60.14,23.64,79.71,15.76,19.58,34.83,34.08,57.21,43.48,22.37,9.42,52.12,18.95,89.25,28.61,28.48,7.63,50.85,14.37,67.12,20.21,16.27,5.85,29.88,14.37,40.82,25.55,10.92,11.19,16.39,25.94,16.39,44.24,0,23.91-9.41,43.87-28.22,59.88-18.82,16.02-46.54,24.03-83.15,24.03-28.48,0-52-6.49-70.56-19.45-18.56-12.97-30.65-31.91-36.23-56.83h-83.91c4.57,44.24,23.52,80.1,56.82,107.55,33.31,27.46,77.93,41.2,133.88,41.2M589.78,541.59v-119.76c0-11.68,3.82-20.97,11.44-27.84,7.63-6.87,16.52-10.3,26.7-10.3,8.12,0,15.37,2.17,21.73,6.48,6.35,4.33,11.06,10.81,14.11,19.45l45.01,131.97h114.41l45.01-131.97c3.05-8.64,7.74-15.12,14.11-19.45,6.35-4.31,13.6-6.48,21.73-6.48,10.17,0,19.07,3.43,26.7,10.3,7.62,6.86,11.44,16.15,11.44,27.84v119.76h76.28V7.63h-95.35l-121.28,355.46c-3.05,8.14-7.89,14.49-14.49,19.07-6.61,4.57-13.73,6.86-21.35,6.86-8.14,0-15.52-2.16-22.12-6.48-6.61-4.31-11.44-10.8-14.49-19.45L608.86,7.63h-95.35v533.95h76.28-.01ZM238.75,369.95c-20.85,0-38.78-7.49-53.77-22.5-15-14.99-22.5-32.92-22.5-53.78s7.5-38.77,22.5-53.78c14.99-14.99,32.92-22.5,53.77-22.5s38.78,7.5,53.78,22.5c14.99,15.01,22.5,32.94,22.5,53.78s-7.51,38.79-22.5,53.78-32.93,22.5-53.78,22.5M81.62,541.59l27.46-80.86c2.53-7.63,7.11-13.85,13.72-18.69,6.6-4.82,13.98-7.24,22.12-7.24h187.65c8.13,0,15.5,2.42,22.12,7.24,6.6,4.84,11.17,11.06,13.72,18.69l27.46,80.86h81.62L295.96,7.63h-114.41L0,541.59h81.62Z"/>
</svg>
