<?xml version="1.0" encoding="UTF-8"?>
<svg id="Layer_1" xmlns="http://www.w3.org/2000/svg" version="1.1" viewBox="0 0 7265.24 549.22">

<style>
path{
fill:currentColor;
}
</style>

<!-- Generator: Adobe Illustrator 30.3.0, SVG Export Plug-In . SVG Version: 2.1.3 Build 182)  -->

<path d="M7036.39,236.47c-20.85,0-38.78-7.49-53.77-22.5-15.01-14.99-22.5-32.92-22.5-53.77s7.49-38.78,22.5-53.78c14.99-14.99,32.92-22.5,53.77-22.5h76.28c20.84,0,38.77,7.51,53.78,22.5,14.99,15,22.5,32.94,22.5,53.78s-7.5,38.78-22.5,53.77c-15.01,15.01-32.94,22.5-53.78,22.5h-76.28Z"/>
<path d="M4063.74,541.59v-136.54c0-10.68,3.81-19.83,11.44-27.46,7.11-7.11,16.02-10.68,26.7-10.68s20.08,3.57,26.7,10.68l164,164h108.32l-212.82-212.82c-14.75-15.75-22.12-33.81-22.12-54.16,0-21.35,7.37-39.4,22.12-54.15l212.82-212.82h-108.32l-164,164c-7.12,7.12-16.01,10.67-26.7,10.67-9.66,0-18.57-3.55-26.7-10.67-7.63-7.63-11.44-16.78-11.44-27.46V7.63h-76.28v533.95h76.28Z"/>

</svg>
